<?xml version="1.0" encoding="utf-8"?>
<!-- Generator: Adobe Illustrator 18.0.0, SVG Export Plug-In . SVG Version: 6.00 Build 0)  -->
<!DOCTYPE svg PUBLIC "-//W3C//DTD SVG 1.0//EN" "http://www.w3.org/TR/2001/REC-SVG-20010904/DTD/svg10.dtd">
<svg version="1.0" id="Layer_1" xmlns="http://www.w3.org/2000/svg" xmlns:xlink="http://www.w3.org/1999/xlink" x="0px" y="0px"
	 width="960px" height="560px" viewBox="0 0 960 560" enable-background="new 0 0 960 560" xml:space="preserve">
<g id="Layer_1_1_">
	<g>
		<g>
			<defs>
				<rect id="SVGID_1_" x="200" width="560" height="560"/>
			</defs>
			<clipPath id="SVGID_2_">
				<use xlink:href="#SVGID_1_"  overflow="visible"/>
			</clipPath>
			<g clip-path="url(#SVGID_2_)">
				<path fill="#45474D" d="M721.9,440.2c0,1.1,0,1.7,0,2.8c-0.6,1.7-1.1,3.4-2.2,5c-3.4,6.7-9.5,6.7-15.7,6.7
					c-145,0-290.1,0-435.1,0c-1.7,0-3.4,0-5,0c-5.6,0-9.5-3.4-11.8-8.4c-0.6-1.1-1.1-2.2-1.1-3.4c0-1.1,0-1.7,0-2.8
					c2.8-9.5,10.1-11.8,19.6-11.8c45.4,0.6,90.7,0,136.6,0c3.9,0,5.6-0.6,5.6-5c-0.6-10.6,0-21.3,0-31.9c0-3.4-1.1-4.5-3.9-4.5
					c-2.8,0-6.2,0-9,0c-43.7,0-87.9,0-131.6,0c-9,0-12.3-2.2-15.1-10.6c0-0.6-0.6-0.6-0.6-1.1c0-100.8,0-201,0-301.8
					c0.6-1.7,1.1-3.4,2.2-5c3.4-6.7,9.5-6.7,15.7-6.7c145,0,290.1,0,435.1,0c1.7,0,3.4,0,5,0c5.6,0,9.5,3.4,11.8,8.4
					c0.6,1.1,1.1,2.2,1.1,3.4c0,100.8,0,201,0,301.8c-2.8,9.5-9.5,12.9-19,11.8c-6.2-0.6-12.3,0-19,0c-39.2,0-77.8,0-117,0
					c-6.2,0-6.2,0-6.2,6.7c0,9.5,0,19,0,28.6c0,6.7,0,6.7,6.7,6.7c46.5,0,92.4,0,138.9,0c5.6,0,10.1,1.1,12.9,6.2
					C720.2,436.2,720.8,437.9,721.9,440.2z M485.6,360.1c67.2,0,135,0,202.2,0c6.2,0,6.2,0,6.2-6.2c0-86.8,0-173,0-259.8
					c0-6.7,0-6.7-6.7-6.7c-134.4,0-268.8,0-403.2,0c-6.7,0-6.7,0-6.7,6.7c0,86.2,0,173,0,259.3c0,6.7,0,6.7,6.7,6.7
					C351.8,360.1,419,360.1,485.6,360.1z M486.2,428.4c14,0,28.6,0,42.6,0c3.4,0,5-0.6,5-4.5c0-10.6,0-21.8,0-32.5
					c0-3.4-1.1-4.5-3.9-4.5c-28.6,0-57.1,0-85.7,0c-3.4,0-4.5,1.1-3.9,4.5c0,10.6,0,21.3,0,31.9c0,3.9,1.1,5.6,5.6,5.6
					C458.2,427.8,472.2,428.4,486.2,428.4z"/>
				<path fill="#45474D" d="M421.8,101.4c38.6,0,77.3,0,116.5,0c1.7,0,3.9,0,5.6,0.6c4.5,1.1,7.3,5,6.7,10.1c0,4.5-3.4,8.4-7.8,9
					c-1.7,0-3.4,0-5,0c-73.4,0-147.3,0-220.6,0c-5,0-5,0-5,5c0,41.4,0,82.3,0,123.8c0,8.4-7.3,12.9-14,9.5c-3.4-1.7-5-5-5-8.4
					c0-0.6,0-1.7,0-2.2c0-44.8,0-89.6,0-134.4c0-2.8,0.6-5,1.7-7.3c1.1-2.8,3.9-4.5,7.3-4.5c1.7,0,2.8,0,4.5,0
					C345,101.4,383.1,101.4,421.8,101.4z"/>
			</g>
		</g>
		<g>
			<defs>
				<rect id="SVGID_3_" x="200" width="560" height="560"/>
			</defs>
			<clipPath id="SVGID_4_">
				<use xlink:href="#SVGID_3_"  overflow="visible"/>
			</clipPath>
			<g clip-path="url(#SVGID_4_)">
				<path fill="#45474D" d="M518.1,304.1c12.3,0,24.1,0,35.8,0s23,0,35.3,0c0-1.7,0-2.8,0-3.9c0-25.2,0-51,0-76.2c0-1.1,0-2.8,0-3.9
					c1.1-6.7,5.6-10.1,12.3-9.5c9.5,0,19,0,28,0c3.4,0,6.2,1.1,7.8,3.9c9,15.7,17.9,30.8,26.3,46.5c1.1,2.2,1.7,5,2.2,7.8
					c0.6,2.2-0.6,3.9-3.4,3.9c-1.7,0-2.8,0-4.5,0c-2.8,0.6-4.5,2.2-4.5,5c0,2.2,1.7,4.5,4.5,4.5c1.1,0,2.8,0,3.9,0
					c2.2,0,2.8,1.1,2.8,2.8c0,3.9,0,7.3,0,11.8c-1.1,0-1.7,0-2.8,0c-4.5,0-9.5,0-14,0c-4.5,0-9-0.6-13.4-2.2
					c-25.2-9-51.5,10.1-51.5,37c0,1.1,0,2.2,0,3.4c-18.5,0-37,0-55.4,0C529.8,323.7,526.5,313.6,518.1,304.1z M624.5,257.6
					c5.6,0,10.6,0,16.2,0c3.4,0,3.9-1.1,2.2-3.9c-5-8.4-9.5-17.4-14.6-25.8c-0.6-1.1-2.8-2.2-4.5-2.2c-5.6,0-11.2,0-16.8,0
					c-2.8,0-3.4,1.1-3.4,3.4c0,8.4,0,16.8,0,25.2c0,2.2,1.1,3.4,3.4,3.4C613.3,257.6,618.9,257.6,624.5,257.6z"/>
				<path fill="#45474D" d="M650.2,332.1c0.6,14-12.3,26.9-26.9,26.9c-12.9-0.6-26.3-10.6-26.3-26.9c0-15.1,11.8-26.3,26.9-26.3
					C640.7,305.2,650.8,319.2,650.2,332.1z M623.9,319.8c-6.7,0-12.3,5.6-12.9,12.3c0,7.3,5,12.3,12.3,12.9
					c6.7,0,12.3-5.6,12.9-11.8C636.2,325.4,630.6,319.8,623.9,319.8z"/>
				<path fill="#45474D" d="M517,332.1c0,14.6-11.8,26.9-25.8,26.9c-15.7,0-26.9-11.8-27.4-26.9c-0.6-12.3,10.1-26.9,26.9-26.9
					C505.8,305.2,517.5,318.1,517,332.1z M502.4,332.1c0-7.3-5.6-12.3-12.9-12.3c-6.7,0-12.3,5.6-12.3,12.3s5.6,12.9,12.3,12.9
					C496.8,344.4,503,338.8,502.4,332.1z"/>
				<path fill="#45474D" d="M462.1,304.6c-8.4,9-11.8,19-11.2,30.8c-4.5,0-9,0.6-12.9,0s-6.2-3.4-6.2-7.3c0-5.6,0-10.6,0-16.2
					c0-3.9,2.8-7.3,6.7-7.3C445.8,304.6,453.7,304.6,462.1,304.6z"/>
				<path fill="#45474D" d="M663.1,334.9c0.6-11.2-2.8-21.3-11.2-30.2c5.6,0,10.6,0,15.7,0c3.9,0,6.7,3.9,7.3,7.8
					c0,4.5,0,8.4,0,12.9C675.4,333.8,668.7,336.6,663.1,334.9z"/>
				<g>
					<path fill="#45474D" d="M503.5,253.1c-0.6,0-1.1,0-1.7,0v7.8c0.6,0,0.6,0,1.1,0c1.1,0,1.7,0,1.7-0.6s0.6-1.7,0.6-3.9
						c0-1.1,0-1.7-0.6-2.2C504.1,253.7,503.5,253.1,503.5,253.1z"/>
					<path fill="#45474D" d="M536,218.4c0,0.6-0.6,1.7-0.6,2.8c0,1.7,0,2.2,0.6,2.8c0,0.6,0.6,0.6,1.1,0.6s1.1,0,1.1-0.6
						c0-0.6,0-1.1,0-2.8v-5.6C537.1,216.7,536.6,217.8,536,218.4z"/>
					<path fill="#45474D" d="M501.3,266v9.5c1.1,0,2.2,0,2.2-0.6c0.6-0.6,0.6-1.1,0.6-2.8v-3.4c0-1.7,0-2.2-0.6-2.8
						C503.5,266,503,266,501.3,266z"/>
					<path fill="#45474D" d="M583.6,190.4c0-6.7-2.8-10.1-10.1-10.1c-21.8,0-43.7,0-65.5,0l0,0c-22.4,0-44.8,0-66.6,0
						c-6.2,0-9,3.4-9.5,9.5c0,2.8,0.6,3.4,3.4,3.4c5,0,10.1,0,15.1,0c3.9,0,6.7,2.8,6.7,6.7c0,3.9-1.7,5-6.2,5c-9.5,0-18.5,0-28,0
						c-3.4,0-4.5,1.1-4.5,3.4c0,2.2,1.7,3.4,4.5,3.4c6.7,0,13.4,0,20.2,0c3.9,0,6.7,2.8,6.7,6.7c0,3.4-2.2,5.6-6.2,5.6
						c-10.6,0-20.7,0-31.4,0c-3.4,0-5,1.7-5,3.9c0,2.8,1.1,3.4,4.5,3.4c8.4,0,17.4,0,25.8,0c5,0,9.5,0,14.6,0c3.9,0,6.7,2.8,6.7,6.2
						c0,3.4-2.2,5.6-6.7,5.6c-6.2,0-12.9,0-19,0c-3.4,0-5,1.1-5,3.9c0,2.2,1.7,3.4,5,3.4c9,0,18.5,0,27.4,0c1.7,0,3.4,1.1,4.5,2.2
						c1.7,1.7,1.7,3.9,0.6,6.2c-1.1,2.2-2.8,3.9-5.6,3.9c-4.5,0-8.4,0-12.9,0c-7.8,0-15.7,0-23.5,0c-2.8,0-4.5,1.7-4.5,3.9
						c0,2.2,1.7,3.4,4.5,3.9c0.6,0,1.7,0,2.2,0c9,0,17.4,0,26.3,0c2.8,0,4.5,1.7,5,3.9c1.1,3.9-2.2,7.8-7.3,8.4c-5,0-10.6,0-15.7,0
						c-1.7,0-2.2,0.6-2.8,2.8c-0.6,7.8,2.8,11.8,11.2,11.8c8.4,0,16.2,0,24.6,0c2.8,0,5-0.6,7.3-1.7c10.6-4.5,21.3-4.5,31.9,0.6
						c1.1,0.6,2.2,1.1,3.4,1.1c21.3,0,42.6,0,63.8,0c5.6,0,9.5-3.9,9.5-9.5C583.6,255.4,583.6,222.9,583.6,190.4z M482.8,229h-15.7
						v-34.2h15.1v6.7h-6.2v6.7h5.6v6.7h-5.6v7.3h6.7L482.8,229L482.8,229z M513.6,273.3c0,2.2,0,3.9-0.6,5c-0.6,1.1-1.1,1.7-2.8,2.2
						c-1.1,0.6-3.4,0.6-7.3,0.6h-10.1V247h9c2.8,0,5,0,6.2,0.6c1.1,0.6,2.8,1.1,3.4,2.8c1.1,1.1,1.1,3.4,1.1,6.7
						c0,2.2-0.6,3.4-1.1,3.9c-0.6,0.6-1.7,1.1-3.9,1.7c2.2,0.6,3.4,1.1,3.9,2.2c0.6,1.1,1.1,2.8,1.1,5v3.4H513.6z M525.4,281.1h-9
						v-28h9V281.1z M525.4,251.4h-9V247h9V251.4z M522.6,229h-11.2c-1.1-5-1.7-11.2-2.8-17.9c-0.6,2.8-1.1,9-2.2,17.9h-11.2
						l-3.9-34.2h8.4l1.1,11.8l1.1,11.8c0.6-6.2,1.1-14,2.2-23.5h9.5c0,1.1,0.6,5,1.1,11.2l1.1,12.9c0.6-8.4,1.1-16.2,2.2-24.6h8.4
						L522.6,229z M537.1,281.1h-9V247h9V281.1z M536.6,229c-0.6,0.6-1.7,0.6-2.8,0.6c-1.7,0-2.8-0.6-3.9-1.1
						c-1.1-1.1-1.7-2.8-1.7-5.6v-2.2c0-2.2,0.6-3.4,1.1-4.5c0.6-1.1,2.2-1.7,5-2.8c2.8-1.1,4.5-1.7,4.5-2.2c0-0.6,0.6-1.1,0.6-2.2
						c0-1.7,0-2.2-0.6-2.8c0-0.6-0.6-0.6-1.1-0.6s-1.1,0-1.1,0.6s0,1.1,0,2.8v2.8h-7.8V210c0-2.2,0-3.9,0.6-5
						c0.6-1.1,1.7-2.2,2.8-3.4c1.7-1.1,3.4-1.1,6.2-1.1c2.8,0,5,0.6,6.7,1.7c1.7,1.1,2.2,2.2,2.8,3.9c-0.6,1.1-0.6,4.5-0.6,9v14
						h-8.4v-2.2C538.2,227.9,537.7,228.5,536.6,229z M548.9,281.1h-9V247h9V281.1z M565.7,221.8c-0.6,3.4-0.6,5.6-1.1,6.7
						c0,1.1-0.6,2.2-1.1,2.8c-0.6,0.6-1.7,1.1-2.8,1.7c-1.1,0.6-2.8,0.6-5,0.6h-5V229c1.1,0,2.2,0,2.8,0s0.6-0.6,0.6-1.1
						c0,0,0-1.1-0.6-2.8l-4.5-23.5h7.8l2.8,19l1.1-19h7.8L565.7,221.8z"/>
				</g>
			</g>
		</g>
	</g>
</g>
<g id="Layer_2">
</g>
</svg>
